<svg width="112" height="32" viewBox="0 0 112 32" fill="none" xmlns="http://www.w3.org/2000/svg">
<path fill-rule="evenodd" clip-rule="evenodd" d="M21.7302 0H10.5935C4.75231 0 0 4.29511 0 9.57432V18.98H4.46217V9.57432C4.46217 6.57146 7.27004 4.03437 10.5935 4.03437H13.9017V18.98H18.37V4.03437H21.7302C25.0816 4.03437 27.8082 6.5197 27.8082 9.57432V18.98H32.2712V9.57432C32.2712 4.29511 27.5425 0 21.7302 0Z" fill="#77BE80"/>
<path fill-rule="evenodd" clip-rule="evenodd" d="M65.3283 4.03437V0H46.424C40.4836 0 35.8301 4.13156 35.8301 9.40563C35.8301 14.6848 40.5824 18.98 46.424 18.98H65.3283V14.946H46.424C43.9181 14.946 41.7158 13.5692 40.7851 11.5101H61.1327V7.46983H40.7126C41.5869 5.41156 43.818 4.03437 46.424 4.03437H65.3283Z" fill="#628BC7"/>
<path fill-rule="evenodd" clip-rule="evenodd" d="M88.5395 0H69.4766V18.98H88.5395C94.3816 18.98 99.1348 14.6848 99.1348 9.40563C99.1348 4.13156 94.4808 0 88.5395 0ZM88.5395 14.9452H73.94V4.03437H88.5395C91.9639 4.03437 94.646 6.39368 94.646 9.40563C94.646 12.4602 91.9067 14.9452 88.5395 14.9452Z" fill="#3B64A1"/>
<path fill-rule="evenodd" clip-rule="evenodd" d="M111.237 19.7846L101.995 15.1576C101.802 15.0608 101.632 15.0122 101.487 15.0122C101.398 15.0122 101.318 15.0308 101.248 15.0679C100.939 15.2327 100.936 15.7 100.936 15.7194V24.9101C100.936 25.2317 101.028 25.4438 101.21 25.5406C101.517 25.7038 101.972 25.4833 101.996 25.4715L111.237 20.8445C111.549 20.6885 111.707 20.5166 111.707 20.3345C111.707 20.0236 111.256 19.7944 111.237 19.7846Z" fill="#40B526"/>
<path fill-rule="evenodd" clip-rule="evenodd" d="M88.7012 31.5564H90.3371V22.1235H88.7012V31.5564Z" fill="#6B8495"/>
<path fill-rule="evenodd" clip-rule="evenodd" d="M79.5684 22.1235H69.4766V31.6145H79.5684C82.5642 31.6145 84.9971 29.4677 84.9971 26.8236C84.9971 24.1534 82.5642 22.1235 79.5684 22.1235ZM79.5684 30.1579H71.1274V23.5805H79.5684C81.6492 23.5805 83.3319 24.9869 83.3319 26.8236C83.3319 28.6468 81.6492 30.1579 79.5684 30.1579Z" fill="#6B8495"/>
<path fill-rule="evenodd" clip-rule="evenodd" d="M65.29 26.8256C65.29 29.4697 62.9007 31.6177 59.8896 31.6177H56.5535C53.5564 31.6177 51.123 29.4697 51.123 26.8256V22.1235H52.7743V26.8256C52.7743 28.6492 54.4867 30.1603 56.5535 30.1603H59.8896C61.9564 30.1603 63.6387 28.6492 63.6387 26.8256V22.1235H65.29V26.8256Z" fill="#6B8495"/>
<path fill-rule="evenodd" clip-rule="evenodd" d="M32.334 22.1235V23.5797H38.9569V31.6192H40.6077V23.5797H47.2312V22.1235H32.334Z" fill="#6B8495"/>
<path fill-rule="evenodd" clip-rule="evenodd" d="M29.3893 28.6721C29.3893 30.2875 27.8713 31.6137 26.0418 31.6137H15.8896H14.7247L14.7243 30.1496C14.7243 30.1496 15.4465 30.1571 15.904 30.1571H26.0418C26.9419 30.1571 27.7241 29.4669 27.7241 28.6721C27.7241 27.8772 26.9419 27.174 26.0418 27.174H16.4651C14.9156 27.174 13.5449 26.1204 13.5449 24.7076C13.5449 23.3067 14.8864 22.1235 16.4651 22.1235H28.3271L28.3301 23.5825C28.3301 23.5825 27.1783 23.5671 26.8091 23.5671H16.4651C15.8158 23.5671 15.2102 23.9866 15.2102 24.6025C15.2102 25.1928 15.8014 25.717 16.4651 25.717H26.0418C27.8713 25.717 29.3893 27.0567 29.3893 28.6721Z" fill="#6B8495"/>
<path fill-rule="evenodd" clip-rule="evenodd" d="M109.863 26.7228C109.863 28.5575 108.167 30.054 106.104 30.054H100.679C98.6003 30.054 96.9202 28.5575 96.9202 26.7228C96.9202 25.2394 98.0344 24.0238 99.5708 23.6236V22.1235C97.0998 22.5569 95.2559 24.4157 95.2559 26.7228C95.2559 29.3769 97.6718 31.5094 100.679 31.5094H106.104C109.097 31.5094 111.527 29.3769 111.527 26.7228C111.527 25.1932 110.709 23.8638 109.441 23.0128L107.804 23.8322C109.021 24.3608 109.863 25.4409 109.863 26.7228Z" fill="#6B8495"/>
</svg>
