<svg width="38" height="38" viewBox="0 0 38 38" fill="none" xmlns="http://www.w3.org/2000/svg">
<path fill-rule="evenodd" clip-rule="evenodd" d="M32.4434 32.5802C31.0703 32.683 25.2745 33.6709 22.2774 35.6533C21.2062 36.3611 19.0265 38 19.0265 38C19.0265 38 16.6167 36.0146 15.3732 35.1394C13.9059 34.1094 11.0212 32.9063 5.62596 32.6184C3.32395 32.496 1.72705 30.7123 1.72705 28.5379L1.77327 5.18579C1.69442 3.80148 2.11132 1.86306 3.55596 0.772446C5.01148 -0.327953 6.96547 -0.251591 9.36082 0.994679C9.52395 1.07985 25.657 9.72934 25.657 18.602C25.657 20.75 24.922 22.6541 23.5888 23.9631C22.4161 25.1124 20.8654 25.7468 19.2205 25.7468C15.83 25.7468 13.2733 23.0898 13.2733 19.5664C13.2733 16.3905 14.6291 14.5881 15.6904 13.6238C15.6904 13.6238 16.3783 14.266 17.3988 15.432C18.2072 16.3533 18.7465 17.2197 18.7465 17.2197C18.6821 17.2657 17.6816 18.1918 17.6816 19.4596C17.6816 20.7196 18.8942 21.0633 19.2513 21.0633C19.7941 21.0633 20.2763 20.7245 20.6298 20.378C21.0312 19.9854 21.2343 19.3872 21.2343 18.602C21.2343 14.6106 12.2628 7.85063 7.45487 5.34635C6.83949 5.02621 6.43347 4.89992 6.19058 4.85195C6.18967 4.88132 6.18967 4.90971 6.19058 4.93419L6.19874 5.03796L6.19602 5.09964V27.8203C9.41882 27.9819 12.1903 28.5174 14.495 29.3799C16.691 30.2022 19.1461 32.0858 19.1461 32.0858C19.1461 32.0858 21.2479 30.6428 23.5915 29.7685C26.7618 28.5859 30.2674 27.9564 31.8498 27.7959V5.61068C29.4018 5.91417 26.2896 8.46741 24.3891 10.165C24.3891 10.165 23.7447 9.34557 22.9997 8.56727C22.0771 7.60295 21.0158 6.63863 21.0158 6.63863C21.6747 6.04927 27.5158 0.759719 32.292 0.759719C34.71 0.759719 36.2725 2.46318 36.2725 5.09964V28.0886C36.21 29.4954 35.4269 32.357 32.4434 32.5802Z" fill="white"/>
</svg>
